<svg width="100" height="100" viewBox="0 0 64 64" xmlns="http://www.w3.org/2000/svg">
  <!-- Define colors from the app's stylesheet -->
  <defs>
    <style>
      .film_strip { fill: #2c3e50; } /* --primary-color */
      .perforation { fill: #f4f7f9; } /* --background-color */
      .sync_arrows { stroke: #3498db; stroke-width: 5; fill: none; stroke-linecap: round; } /* --secondary-color */
    </style>
  </defs>

  <!-- Film Strip -->
  <rect class="film_strip" x="10" y="4" width="44" height="56" rx="4"/>
  
  <!-- Perforations (holes on the side of the film) -->
  <rect class="perforation" x="14" y="8" width="4" height="4"/>
  <rect class="perforation" x="14" y="16" width="4" height="4"/>
  <rect class="perforation" x="14" y="24" width="4" height="4"/>
  <rect class="perforation" x="14" y="32" width="4" height="4"/>
  <rect class="perforation" x="14" y="40" width="4" height="4"/>
  <rect class="perforation" x="14" y="48" width="4" height="4"/>
  
  <rect class="perforation" x="46" y="8" width="4" height="4"/>
  <rect class="perforation" x="46" y="16" width="4" height="4"/>
  <rect class="perforation" x="46" y="24" width="4" height="4"/>
  <rect class="perforation" x="46" y="32" width="4" height="4"/>
  <rect class="perforation" x="46" y="40" width="4" height="4"/>
  <rect class="perforation" x="46" y="48" width="4" height="4"/>

  <!-- Sync Arrows (two arrows in a circular motion) -->
  <path class="sync_arrows" d="M48,24A16,16,0,1,0,32,8" />
  <polyline class="sync_arrows" points="32,2 32,14 44,14" />
  
  <path class="sync_arrows" d="M16,40A16,16,0,1,0,32,56" />
  <polyline class="sync_arrows" points="32,62 32,50 20,50" />
</svg>
